<svg width="56" height="56" viewBox="0 0 56 56" fill="none" xmlns="http://www.w3.org/2000/svg">
<path d="M12.5703 43.0185C12.2246 42.7913 11.8937 42.5423 11.5798 42.273L10.486 41.335C10.3096 41.1842 10.0806 41.1096 9.84919 41.1276C9.61782 41.1457 9.40309 41.2549 9.25225 41.4312C9.10141 41.6076 9.02681 41.8367 9.04486 42.0681C9.06291 42.2994 9.17213 42.5142 9.3485 42.665L10.4423 43.6013C10.8128 43.9196 11.2036 44.2136 11.6121 44.4815C11.8061 44.6091 12.0429 44.6545 12.2703 44.6075C12.4978 44.5606 12.6972 44.4253 12.8249 44.2312C12.9525 44.0372 12.9979 43.8005 12.9509 43.573C12.904 43.3456 12.7686 43.1461 12.5746 43.0185H12.5703ZM19.9789 44.4867C19.4377 44.5785 18.8898 44.6248 18.3409 44.625H17.9375C16.9855 44.6252 16.0386 44.4858 15.127 44.2111C14.9047 44.1443 14.6649 44.1685 14.4605 44.2785C14.256 44.3884 14.1036 44.5751 14.0368 44.7974C13.9699 45.0197 13.9941 45.2595 14.1041 45.4639C14.214 45.6684 14.4007 45.8208 14.623 45.8876C15.6982 46.2107 16.8148 46.3749 17.9375 46.375H18.3409C18.9877 46.3749 19.6334 46.3205 20.2711 46.2122C20.3844 46.1931 20.4928 46.1517 20.5902 46.0907C20.6875 46.0296 20.7718 45.9499 20.8384 45.8562C20.9049 45.7625 20.9524 45.6567 20.978 45.5447C21.0036 45.4326 21.0069 45.3167 20.9878 45.2034C20.9686 45.0901 20.9272 44.9817 20.8662 44.8843C20.8051 44.787 20.7254 44.7027 20.6317 44.6361C20.538 44.5696 20.4322 44.5221 20.3202 44.4965C20.2081 44.4709 20.0922 44.4676 19.9789 44.4867ZM45.514 41.335L44.4202 42.273C44.1063 42.5423 43.7754 42.7913 43.4298 43.0185C43.2357 43.1461 43.1004 43.3456 43.0535 43.573C43.0065 43.8005 43.0519 44.0372 43.1795 44.2312C43.3071 44.4253 43.5066 44.5606 43.734 44.6075C43.9615 44.6545 44.1982 44.6091 44.3923 44.4815C44.8005 44.2151 45.1912 43.9228 45.5621 43.6065L46.6559 42.6694C46.7432 42.5947 46.815 42.5035 46.8671 42.4011C46.9192 42.2987 46.9506 42.187 46.9595 42.0724C46.9685 41.9579 46.9547 41.8427 46.9192 41.7334C46.8836 41.6241 46.8268 41.523 46.7521 41.4356C46.6774 41.3483 46.5863 41.2765 46.4839 41.2244C46.3814 41.1723 46.2698 41.1409 46.1552 41.132C46.0406 41.123 45.9254 41.1368 45.8162 41.1723C45.7069 41.2079 45.6057 41.2647 45.5184 41.3394L45.514 41.335ZM40.873 44.2111C39.9614 44.4858 39.0145 44.6252 38.0625 44.625H37.6591C37.1102 44.6248 36.5623 44.5785 36.0211 44.4867C35.9078 44.4676 35.7919 44.4709 35.6798 44.4965C35.5678 44.5221 35.462 44.5696 35.3683 44.6361C35.2746 44.7027 35.1949 44.787 35.1338 44.8843C35.0728 44.9817 35.0314 45.0901 35.0123 45.2034C34.9931 45.3167 34.9964 45.4326 35.022 45.5447C35.0476 45.6567 35.0951 45.7625 35.1616 45.8562C35.296 46.0454 35.5001 46.1735 35.7289 46.2122C36.3666 46.3205 37.0123 46.3749 37.6591 46.375H38.0625C39.1852 46.3749 40.3018 46.2107 41.377 45.8876C41.5993 45.8208 41.786 45.6684 41.8959 45.4639C42.0059 45.2595 42.0301 45.0197 41.9633 44.7974C41.8964 44.5751 41.744 44.3884 41.5395 44.2785C41.3351 44.1685 41.0953 44.1443 40.873 44.2111Z" fill="#264065"/>
<path d="M45.5621 33.3996C44.5945 32.5754 43.4978 31.9161 42.3159 31.4484C43.2003 29.9864 43.7945 28.3675 44.0659 26.6805L45.4939 17.6365C45.5153 17.5002 45.5043 17.3607 45.4615 17.2294C45.4188 17.0982 45.3456 16.9789 45.248 16.8814C45.151 16.7829 45.0318 16.7093 44.9004 16.6667C44.7689 16.624 44.6292 16.6136 44.4929 16.6364L37.7624 17.6986L35.7341 12.7908C35.6814 12.6634 35.5993 12.5502 35.4946 12.4606C35.3898 12.371 35.2654 12.3074 35.1314 12.2749C34.9974 12.2425 34.8576 12.2422 34.7235 12.2741C34.5893 12.3059 34.4646 12.3691 34.3595 12.4583L32.1877 14.3036L28.7595 8.3125C28.6766 8.18687 28.5638 8.08377 28.4312 8.01244C28.2987 7.9411 28.1505 7.90376 28 7.90376C27.8495 7.90376 27.7013 7.9411 27.5687 8.01244C27.4362 8.08377 27.3234 8.18687 27.2405 8.3125L23.8166 14.3001L21.6449 12.4548C21.5402 12.3648 21.4155 12.3012 21.2813 12.2692C21.147 12.2373 21.0071 12.2379 20.8731 12.271C20.7391 12.3034 20.6147 12.3669 20.5099 12.4565C20.4052 12.546 20.323 12.6591 20.2702 12.7864L18.2674 17.6208L12.0006 16.632C11.8644 16.6106 11.7251 16.6217 11.594 16.6644C11.4628 16.7071 11.3437 16.7802 11.2462 16.8777C11.1487 16.9752 11.0756 17.0944 11.0329 17.2255C10.9902 17.3566 10.9791 17.4959 11.0005 17.6321L12.425 26.6875C12.6913 28.3142 13.2549 29.8779 14.0875 31.3005C12.7531 31.7699 11.517 32.4818 10.4414 33.4005L7.30887 36.0868C7.21311 36.1689 7.13625 36.2708 7.08355 36.3854C7.03085 36.5 7.00357 36.6247 7.00357 36.7509C7.00357 36.877 7.03085 37.0017 7.08355 37.1163C7.13625 37.231 7.21311 37.3329 7.30887 37.415L10.4387 40.1013C12.5284 41.8891 15.1874 42.8726 17.9375 42.875H18.34C19.5279 42.8759 20.7086 42.692 21.84 42.3299C22.5114 45.9677 24.522 49.2218 27.475 51.45C27.6264 51.5636 27.8107 51.625 28 51.625C28.1893 51.625 28.3735 51.5636 28.525 51.45C31.4791 49.2226 33.491 45.9688 34.1635 42.3308C35.295 42.6921 36.4757 42.8757 37.6635 42.875H38.066C40.8165 42.8726 43.4759 41.8887 45.5656 40.1004L48.6981 37.4141C48.7939 37.332 48.8707 37.2301 48.9234 37.1155C48.9761 37.0008 49.0034 36.8762 49.0034 36.75C49.0034 36.6238 48.9761 36.4992 48.9234 36.3845C48.8707 36.2699 48.7939 36.168 48.6981 36.0859L45.5621 33.3996ZM43.575 18.55L42.3325 26.4075C42.0726 28.0701 41.4533 29.6559 40.5177 31.0546C39.5218 32.5384 38.2 33.7748 36.6532 34.6696C35.1063 35.5643 33.3754 36.0936 31.5927 36.2171L31.0957 36.2504C30.2318 36.312 29.3672 36.1403 28.5924 35.7534C28.581 35.7481 28.5714 35.7429 28.5591 35.7385C28.0938 35.5024 27.6689 35.194 27.3 34.825C26.8052 34.3301 26.4219 33.7352 26.1758 33.0801C25.9296 32.425 25.8264 31.7249 25.8729 31.0266L25.9052 30.5296C26.0809 27.8924 27.1477 25.3932 28.9306 23.442C30.7136 21.4909 33.1067 20.2037 35.7175 19.7916L43.575 18.55ZM34.5721 14.5696L35.9809 17.9821L35.4445 18.0696C35.0945 18.1248 34.7445 18.2096 34.3945 18.2945C34.1521 17.7984 33.9027 17.3136 33.6437 16.8604L33.0689 15.8541L34.5721 14.5696ZM23.877 17.7249L28 10.5131L32.123 17.7249C32.3234 18.0749 32.5141 18.4354 32.7005 18.8064C31.7873 19.1583 30.9153 19.6089 30.1 20.1504C29.4366 20.6016 28.8157 21.1124 28.245 21.6764C26.8717 20.3138 25.2079 19.2797 23.3782 18.6515C23.5436 18.3304 23.7125 18.025 23.877 17.7249ZM21.427 14.5688L22.9329 15.8489L22.3554 16.8604C22.1209 17.2769 21.8916 17.7161 21.6624 18.1729C21.4471 18.1283 21.2424 18.0924 21.0411 18.0635L20.0454 17.906L21.427 14.5688ZM12.9167 18.55L20.7769 19.7908C21.1598 19.849 21.5395 19.9269 21.9144 20.0244C23.8668 20.5283 25.6491 21.5448 27.0769 22.9688C25.3762 25.098 24.362 27.6933 24.1684 30.4115L24.136 30.9085C24.0722 31.8556 24.2119 32.8055 24.5458 33.6941C24.8796 34.5828 25.3998 35.3897 26.0715 36.0605C26.1284 36.1183 26.1914 36.1681 26.2509 36.2233C25.9687 36.2564 25.6842 36.2663 25.4004 36.253L24.8937 36.2171C24.2411 36.1745 23.5937 36.0735 22.9591 35.9153C21.864 35.6562 20.8122 35.24 19.8362 34.6798C18.3758 33.8367 17.1178 32.6838 16.1507 31.3023L15.9757 31.0564C15.0432 29.6569 14.4244 28.0722 14.1619 26.411L12.9167 18.55ZM18.34 41.125H17.9375C15.605 41.1229 13.3498 40.2889 11.5771 38.773L9.21899 36.75L11.5815 34.727C12.6111 33.8507 13.8121 33.1987 15.1077 32.8125C16.9553 35.2269 19.5844 36.9244 22.5452 37.6145C23.2762 37.7975 24.022 37.9146 24.7739 37.9645L25.2787 38.0004C25.3557 38.0048 25.4327 38.0056 25.5089 38.0074L25.2464 38.2699C24.3687 39.1514 23.3288 39.8547 22.1839 40.341C20.969 40.8602 19.6612 41.1269 18.34 41.125ZM28 49.6344C25.5806 47.6066 23.9796 44.7694 23.4946 41.65C24.6003 41.1021 25.6098 40.3784 26.4836 39.5071L28 37.9873L29.5164 39.5036C30.3904 40.3749 31.3998 41.0989 32.5054 41.6474C32.021 44.7677 30.42 47.6059 28 49.6344ZM44.4237 38.7721C42.651 40.2886 40.3954 41.1229 38.0625 41.125H37.66C36.3365 41.1263 35.0267 40.8583 33.81 40.3375C32.6671 39.8503 31.629 39.1471 30.7527 38.2664L30.4841 37.9978C30.5795 37.9978 30.6749 38.0118 30.7702 38.0118C30.9181 38.0118 31.0669 38.0074 31.2147 37.9978L31.7117 37.9645C33.5675 37.8325 35.3759 37.3178 37.0231 36.453C38.6704 35.5882 40.1209 34.3919 41.2834 32.9394C42.4307 33.3369 43.4948 33.9429 44.422 34.727L46.781 36.75L44.4237 38.7721Z" fill="#264065"/>
<path d="M5.25 35.875H3.5V37.625H5.25V35.875Z" fill="#264065"/>
<path d="M10.5 14H8.75V15.75H10.5V14Z" fill="#264065"/>
<path d="M28.875 4.375H27.125V6.125H28.875V4.375Z" fill="#264065"/>
<path d="M47.25 14H45.5V15.75H47.25V14Z" fill="#264065"/>
<path d="M52.5 35.875H50.75V37.625H52.5V35.875Z" fill="#264065"/>
</svg>
