<svg width="56" height="56" viewBox="0 0 56 56" fill="none" xmlns="http://www.w3.org/2000/svg">
<path d="M15.9714 45.4055L16.7037 46.5771C17.8271 48.3626 19.3677 49.8481 21.1927 50.9059C23.0178 51.9636 25.0727 52.5617 27.1804 52.6488C29.288 52.7358 31.3852 52.3092 33.2913 51.4056C35.1974 50.5019 36.8552 49.1485 38.122 47.4617L39.4056 45.7502C41.0708 43.5216 41.9798 40.819 42 38.0371L45.0625 35.4839C45.5114 35.1123 45.8784 34.6517 46.1401 34.1311C46.4019 33.6105 46.5528 33.0413 46.5833 32.4593C46.6138 31.8774 46.5233 31.2955 46.3174 30.7504C46.1115 30.2053 45.7947 29.7088 45.3871 29.2924C45.4595 29.1651 45.4983 29.0214 45.5 28.875V23.625C45.4969 20.6756 44.7478 17.7749 43.3224 15.1928C41.8971 12.6107 39.8417 10.4311 37.3476 8.85674L36.379 6.93174C35.6022 5.37445 34.4068 4.06446 32.9269 3.14883C31.447 2.23321 29.7411 1.74817 28.0009 1.74817C26.2606 1.74817 24.5548 2.23321 23.0749 3.14883C21.5949 4.06446 20.3995 5.37445 19.6227 6.93174L18.9052 8.35799C18.8448 8.48215 18.8148 8.61893 18.8177 8.75699C16.2669 10.3076 14.1604 12.4916 12.7029 15.0968C11.2455 17.702 10.4866 20.6398 10.5 23.625V28.875C10.5031 29.0205 10.5438 29.1628 10.6181 29.288C10.2093 29.7041 9.89139 30.2005 9.68455 30.7459C9.47771 31.2913 9.38645 31.8738 9.41656 32.4563C9.44667 33.0388 9.59749 33.6088 9.85946 34.1299C10.1214 34.6511 10.4888 35.1122 10.9384 35.4839L14 38.0345V38.5315C13.9992 40.9624 14.6823 43.3445 15.9714 45.4055ZM40.25 28.875V37.9689C40.2449 40.3956 39.4579 42.756 38.0056 44.7002L36.7229 46.4117C35.63 47.8761 34.1966 49.0518 32.5468 49.8372C30.897 50.6226 29.0806 50.9939 27.255 50.9189C25.4293 50.8439 23.6495 50.3249 22.0697 49.4069C20.4899 48.4889 19.1577 47.1995 18.1886 45.6505L17.4554 44.478C16.3403 42.6951 15.7493 40.6344 15.75 38.5315V28.875C15.7449 28.8381 15.7376 28.8016 15.7281 28.7656C16.9969 27.9834 18.2297 27.1486 19.4154 26.25H32.599L40.25 28.5005V28.875ZM21.5854 24.5C22.1165 24.0441 22.6406 23.5786 23.1507 23.1C24.1799 23.6485 25.262 24.0914 26.3804 24.4221L26.649 24.5009L21.5854 24.5ZM44.6565 31.311C44.8522 31.7975 44.8884 32.3337 44.7598 32.8421C44.6311 33.3505 44.3443 33.805 43.9407 34.1399L42 35.7569V29.75H42.35C42.8469 29.7479 43.3328 29.8958 43.7443 30.1743C44.1558 30.4528 44.4737 30.8489 44.6565 31.311ZM28 3.49999C29.3619 3.49787 30.6991 3.86346 31.8705 4.55819C33.0419 5.25292 34.004 6.25102 34.6552 7.44712C34.44 7.35962 34.2177 7.28699 33.9981 7.20649C33.9911 7.20649 33.9859 7.19687 33.9789 7.19424C33.9465 7.18287 33.9132 7.17499 33.8809 7.16362C33.4679 7.01487 33.0482 6.88187 32.6217 6.76462C32.515 6.73487 32.4091 6.70949 32.3024 6.68237C31.9235 6.58612 31.5437 6.49599 31.1552 6.42512C30.9356 6.38399 30.7177 6.35687 30.4946 6.32362C30.205 6.28249 29.918 6.23612 29.6196 6.20724C29.0832 6.15562 28.5425 6.12499 28 6.12499C25.7122 6.1313 23.4479 6.58613 21.3351 7.46374C21.9843 6.26254 22.9468 5.25969 24.1203 4.56175C25.2939 3.86382 26.6346 3.4969 28 3.49999ZM28 7.87499C28.4917 7.87499 28.9756 7.90474 29.456 7.94849C29.7299 7.97474 30.0029 8.01762 30.2759 8.05874C30.4605 8.08587 30.6451 8.10949 30.8271 8.14624C31.1885 8.21362 31.5481 8.29587 31.9069 8.38862C31.983 8.40874 32.06 8.42712 32.1352 8.44812C32.5331 8.55778 32.9283 8.68291 33.3209 8.82349C36.3697 9.91971 39.0067 11.9288 40.8728 14.5773C42.7389 17.2258 43.7436 20.3851 43.75 23.625V27.706L26.8739 22.7421C24.4805 22.0397 22.2929 20.7677 20.4986 19.0351C18.7042 17.3024 17.3565 15.1607 16.5707 12.7934C18.0364 11.2333 19.8075 9.99154 21.7738 9.1454C23.7401 8.29925 25.8594 7.86681 28 7.87499ZM12.25 23.625C12.2495 20.2908 13.3122 17.0433 15.2836 14.3544C16.5587 17.5241 18.7504 20.2413 21.5784 22.1585C20.5931 23.0638 19.5685 23.9242 18.5045 24.7397C18.4957 24.7485 18.4852 24.7537 18.4765 24.7625C16.9292 25.9465 15.3061 27.028 13.6176 28C13.1514 28.005 12.6893 28.0872 12.25 28.2432V23.625ZM12.0592 34.1399C11.667 33.8132 11.3851 33.3737 11.2517 32.881C11.1183 32.3883 11.1401 31.8665 11.314 31.3866C11.4878 30.9068 11.8054 30.4922 12.2234 30.1993C12.6415 29.9064 13.1396 29.7495 13.65 29.75H14V35.7569L12.0592 34.1399Z" fill="#264065"/>
<path d="M27.125 33.25C27.125 32.2117 26.8171 31.1966 26.2402 30.3333C25.6633 29.4699 24.8434 28.797 23.8841 28.3996C22.9248 28.0023 21.8692 27.8983 20.8508 28.1009C19.8324 28.3035 18.8969 28.8035 18.1627 29.5377C17.4285 30.2719 16.9285 31.2074 16.7259 32.2258C16.5233 33.2442 16.6273 34.2998 17.0246 35.2591C17.422 36.2184 18.0949 37.0383 18.9583 37.6152C19.8216 38.1921 20.8367 38.5 21.875 38.5C23.267 38.4986 24.6015 37.945 25.5858 36.9608C26.57 35.9765 27.1236 34.642 27.125 33.25ZM21.875 36.75C21.1828 36.75 20.5061 36.5447 19.9305 36.1601C19.3549 35.7756 18.9063 35.2289 18.6414 34.5894C18.3765 33.9499 18.3072 33.2461 18.4423 32.5672C18.5773 31.8883 18.9106 31.2646 19.4001 30.7751C19.8896 30.2856 20.5133 29.9523 21.1922 29.8173C21.8711 29.6822 22.5749 29.7515 23.2144 30.0164C23.8539 30.2813 24.4006 30.7299 24.7851 31.3055C25.1697 31.8811 25.375 32.5578 25.375 33.25C25.375 34.1783 25.0063 35.0685 24.3499 35.7249C23.6935 36.3813 22.8033 36.75 21.875 36.75Z" fill="#264065"/>
<path d="M22.75 30.625H21V32.375H22.75V30.625Z" fill="#264065"/>
<path d="M22.75 34.125H21V35.875H22.75V34.125Z" fill="#264065"/>
<path d="M24.5 32.375H22.75V34.125H24.5V32.375Z" fill="#264065"/>
<path d="M21 32.375H19.25V34.125H21V32.375Z" fill="#264065"/>
<path d="M28.875 33.25C28.875 34.2884 29.1829 35.3034 29.7598 36.1667C30.3367 37.0301 31.1566 37.703 32.1159 38.1004C33.0752 38.4977 34.1308 38.6017 35.1492 38.3991C36.1676 38.1966 37.1031 37.6965 37.8373 36.9623C38.5715 36.2281 39.0716 35.2926 39.2741 34.2742C39.4767 33.2558 39.3727 32.2002 38.9754 31.2409C38.578 30.2816 37.9051 29.4617 37.0417 28.8848C36.1784 28.3079 35.1634 28 34.125 28C32.733 28.0014 31.3985 28.555 30.4142 29.5392C29.43 30.5235 28.8764 31.858 28.875 33.25ZM34.125 29.75C34.8172 29.75 35.4939 29.9553 36.0695 30.3399C36.6451 30.7244 37.0937 31.2711 37.3586 31.9106C37.6235 32.5501 37.6928 33.2539 37.5577 33.9328C37.4227 34.6118 37.0894 35.2354 36.5999 35.7249C36.1104 36.2144 35.4868 36.5477 34.8078 36.6827C34.1289 36.8178 33.4251 36.7485 32.7856 36.4836C32.1461 36.2187 31.5994 35.7701 31.2149 35.1945C30.8303 34.6189 30.625 33.9422 30.625 33.25C30.625 32.3217 30.9937 31.4315 31.6501 30.7751C32.3065 30.1187 33.1967 29.75 34.125 29.75Z" fill="#264065"/>
<path d="M35 30.625H33.25V32.375H35V30.625Z" fill="#264065"/>
<path d="M35 34.125H33.25V35.875H35V34.125Z" fill="#264065"/>
<path d="M36.75 32.375H35V34.125H36.75V32.375Z" fill="#264065"/>
<path d="M33.25 32.375H31.5V34.125H33.25V32.375Z" fill="#264065"/>
<path d="M31.7564 43.1314C30.7593 44.1262 29.4084 44.6849 28 44.6849C26.5916 44.6849 25.2406 44.1262 24.2436 43.1314C24.0786 42.972 23.8576 42.8838 23.6281 42.8858C23.3987 42.8878 23.1793 42.9798 23.017 43.142C22.8548 43.3043 22.7628 43.5237 22.7608 43.7531C22.7588 43.9826 22.847 44.2036 23.0064 44.3686C24.3318 45.6911 26.1277 46.4338 28 46.4338C29.8723 46.4338 31.6682 45.6911 32.9936 44.3686C33.153 44.2036 33.2412 43.9826 33.2392 43.7531C33.2372 43.5237 33.1452 43.3043 32.983 43.142C32.8207 42.9798 32.6013 42.8878 32.3718 42.8858C32.1424 42.8838 31.9214 42.972 31.7564 43.1314Z" fill="#264065"/>
<path d="M25.8589 41.9125L27.6089 42.7875C27.7117 42.8389 27.8237 42.8695 27.9383 42.8776C28.053 42.8857 28.1681 42.8711 28.2772 42.8347C28.3862 42.7983 28.487 42.7408 28.5738 42.6654C28.6606 42.5901 28.7317 42.4983 28.7831 42.3955C28.8345 42.2927 28.8651 42.1807 28.8732 42.066C28.8813 41.9514 28.8667 41.8362 28.8303 41.7272C28.7939 41.6181 28.7364 41.5173 28.661 41.4305C28.5857 41.3437 28.4939 41.2726 28.3911 41.2212L27.349 40.7006L28.8181 36.8349C28.8589 36.7274 28.8781 36.613 28.8747 36.4981C28.8713 36.3833 28.8453 36.2702 28.7981 36.1654C28.751 36.0606 28.6837 35.9661 28.6 35.8873C28.5164 35.8085 28.418 35.7469 28.3106 35.7061C28.2032 35.6653 28.0888 35.6461 27.9739 35.6495C27.859 35.653 27.7459 35.679 27.6411 35.7261C27.5363 35.7732 27.4418 35.8405 27.363 35.9242C27.2842 36.0078 27.2227 36.1062 27.1819 36.2136L25.4319 40.8187C25.3548 41.0216 25.3558 41.2458 25.4347 41.4479C25.5136 41.65 25.6647 41.8156 25.8589 41.9125Z" fill="#264065"/>
</svg>
