<svg width="56" height="56" viewBox="0 0 56 56" fill="none" xmlns="http://www.w3.org/2000/svg">
<path d="M12.6508 26.6595C11.8336 27.4805 11.3749 28.5917 11.375 29.75V36.1725C11.3717 39.0167 12.3162 41.781 14.0592 44.0285C15.8022 46.2761 18.2445 47.8788 21 48.5835V51.625C21 51.8571 21.0922 52.0796 21.2563 52.2437C21.4204 52.4078 21.6429 52.5 21.875 52.5H34.125C34.3571 52.5 34.5796 52.4078 34.7437 52.2437C34.9078 52.0796 35 51.8571 35 51.625V48.5835C37.7556 47.8788 40.1978 46.2761 41.9408 44.0285C43.6838 41.781 44.6283 39.0167 44.625 36.1725V32.8204C45.4664 32.798 46.2941 32.6016 47.0558 32.2435C47.8175 31.8854 48.4968 31.3733 49.0508 30.7396L51.4071 28.0621C51.49 27.9674 51.5514 27.8559 51.5872 27.7353C51.623 27.6147 51.6324 27.4878 51.6147 27.3632C51.597 27.2386 51.5527 27.1193 51.4847 27.0134C51.4167 26.9075 51.3267 26.8176 51.2208 26.7496L48.2125 24.8281C47.3601 24.2816 46.3846 23.957 45.3748 23.8838C44.3649 23.8106 43.3528 23.9912 42.4305 24.409L43.1156 23.2356L46.1781 22.1725C47.5637 21.6995 48.7325 20.7434 49.4708 19.4792C50.2092 18.215 50.4676 16.7271 50.1988 15.288L49.56 11.7784C49.5373 11.6543 49.4881 11.5366 49.4156 11.4333C49.3432 11.33 49.2492 11.2436 49.1403 11.1801C49.0313 11.1165 48.9099 11.0772 48.7844 11.065C48.6588 11.0527 48.5321 11.0677 48.4129 11.109L45.0424 12.2771C43.6577 12.7511 42.4899 13.7078 41.7526 14.9721C41.0152 16.2364 40.7577 17.7239 41.027 19.1625L41.608 22.3519L40.9386 23.4981C40.8414 22.4939 40.4962 21.5297 39.934 20.6919C39.3717 19.8542 38.6102 19.1693 37.7178 18.6988L34.5678 17.0223C34.4563 16.9628 34.3333 16.9282 34.2073 16.9207C34.0812 16.9133 33.955 16.9333 33.8373 16.9793C33.7197 17.0252 33.6134 17.0961 33.5258 17.1871C33.4381 17.278 33.3712 17.3869 33.3296 17.5061L32.1563 20.8723C31.6397 22.3412 31.7041 23.9521 32.3365 25.375H25.5806L24.2778 21.2039C23.9721 20.221 23.3021 19.3922 22.405 18.8874C21.508 18.3826 20.4518 18.24 19.453 18.4888C18.4542 18.7376 17.5884 19.359 17.033 20.2256C16.4776 21.0922 16.2746 22.1385 16.4658 23.1499L16.8875 25.375H15.75C14.5876 25.3757 13.4729 25.8377 12.6508 26.6595ZM45.6208 13.93L48.027 13.097L48.4829 15.6021C48.6747 16.6301 48.49 17.6927 47.9625 18.5956C47.4349 19.4984 46.5999 20.1811 45.6103 20.5188L43.2049 21.3526L42.749 18.8475C42.5571 17.8196 42.7417 16.7569 43.269 15.8539C43.7963 14.9509 44.6312 14.268 45.6208 13.93ZM33.25 50.75H22.75V48.9125C23.2322 48.9685 23.7171 48.9977 24.2025 49H31.7975C32.2829 48.9977 32.7678 48.9685 33.25 48.9125V50.75ZM42.875 36.1725C42.8755 37.6274 42.5893 39.068 42.0327 40.4122C41.4762 41.7564 40.6602 42.9778 39.6315 44.0065C38.6028 45.0352 37.3814 45.8512 36.0372 46.4077C34.693 46.9643 33.2524 47.2505 31.7975 47.25H24.2025C21.3655 47.2595 18.6339 46.1749 16.5761 44.2219C14.5183 42.2688 13.2926 39.5977 13.1539 36.764C14.1705 37.3303 15.3152 37.6268 16.4789 37.625H18.375C18.6071 37.625 18.8296 37.5328 18.9937 37.3687C19.1578 37.2046 19.25 36.9821 19.25 36.75C19.25 36.5179 19.1578 36.2954 18.9937 36.1313C18.8296 35.9672 18.6071 35.875 18.375 35.875H16.4754C15.2423 35.8767 14.051 35.4284 13.125 34.6141V33.2273C13.8778 33.8063 14.8002 34.1218 15.75 34.125H40.25C41.1996 34.1206 42.1216 33.8053 42.875 33.2273V36.1725ZM37.7834 32.375L38.9209 30.429L41.1591 31.857C41.2703 31.9288 41.3884 31.9804 41.5021 32.0434C41.1193 32.2575 40.6886 32.3716 40.25 32.375H37.7834ZM41.6334 27.1014C42.3202 26.3129 43.2681 25.7983 44.3034 25.6516C45.3387 25.5049 46.3922 25.7359 47.271 26.3025L49.4183 27.6719L47.7365 29.5838C47.0498 30.3724 46.1019 30.8871 45.0666 31.0339C44.0312 31.1806 42.9777 30.9494 42.0989 30.3826L39.9525 29.0124L41.6334 27.1014ZM33.8083 21.4498L34.6465 19.0453L36.8944 20.2423C37.8196 20.7294 38.5384 21.5334 38.9194 22.5071C39.3003 23.4808 39.318 24.5591 38.969 25.5448L38.1308 27.9484L35.882 26.7523C34.9573 26.2647 34.2389 25.4606 33.8583 24.487C33.4777 23.5133 33.4602 22.4352 33.8091 21.4498H33.8083ZM33.5125 27.125C33.9631 27.5947 34.4853 27.9902 35.0595 28.2966L37.4063 29.5461L35.7578 32.375H27.7681L27.2213 30.625H28.875C29.1071 30.625 29.3296 30.5328 29.4937 30.3687C29.6578 30.2046 29.75 29.9821 29.75 29.75C29.75 29.5179 29.6578 29.2954 29.4937 29.1313C29.3296 28.9672 29.1071 28.875 28.875 28.875H26.6744L26.1275 27.125H33.5125ZM18.6725 20.9501C18.9345 20.6333 19.2772 20.3931 19.6645 20.255C20.0517 20.1169 20.4691 20.086 20.8724 20.1655C21.2758 20.245 21.6502 20.432 21.956 20.7067C22.2619 20.9814 22.4878 21.3337 22.61 21.7263L25.935 32.375H19.9763L18.186 22.827C18.1238 22.4976 18.1352 22.1586 18.2193 21.8341C18.3034 21.5097 18.4582 21.2078 18.6725 20.9501ZM17.2113 27.125L17.5394 28.875H15.75C15.5179 28.875 15.2954 28.9672 15.1313 29.1313C14.9672 29.2954 14.875 29.5179 14.875 29.75C14.875 29.9821 14.9672 30.2046 15.1313 30.3687C15.2954 30.5328 15.5179 30.625 15.75 30.625H17.8675L18.1956 32.375H15.75C15.0538 32.375 14.3861 32.0984 13.8939 31.6062C13.4016 31.1139 13.125 30.4462 13.125 29.75C13.125 29.0538 13.4016 28.3861 13.8939 27.8939C14.3861 27.4016 15.0538 27.125 15.75 27.125H17.2113Z" fill="#264065"/>
<path d="M22.75 35.875H21.875C21.6429 35.875 21.4204 35.9672 21.2563 36.1313C21.0922 36.2954 21 36.5179 21 36.75C21 36.9821 21.0922 37.2046 21.2563 37.3687C21.4204 37.5328 21.6429 37.625 21.875 37.625H22.75C22.9821 37.625 23.2046 37.5328 23.3687 37.3687C23.5328 37.2046 23.625 36.9821 23.625 36.75C23.625 36.5179 23.5328 36.2954 23.3687 36.1313C23.2046 35.9672 22.9821 35.875 22.75 35.875ZM32.375 30.625H33.25C33.4821 30.625 33.7046 30.5328 33.8687 30.3687C34.0328 30.2046 34.125 29.9821 34.125 29.75C34.125 29.5179 34.0328 29.2954 33.8687 29.1313C33.7046 28.9672 33.4821 28.875 33.25 28.875H32.375C32.1429 28.875 31.9204 28.9672 31.7563 29.1313C31.5922 29.2954 31.5 29.5179 31.5 29.75C31.5 29.9821 31.5922 30.2046 31.7563 30.3687C31.9204 30.5328 32.1429 30.625 32.375 30.625ZM22.0036 9.39663C21.897 9.72457 21.8561 10.0703 21.8831 10.4141C21.9101 10.7578 22.0047 11.0929 22.1612 11.4002C22.3178 11.7074 22.5334 11.9808 22.7957 12.2047C23.0579 12.4285 23.3617 12.5986 23.6897 12.705C24.0625 12.8262 24.4519 12.8879 24.8439 12.8879C24.9585 12.8879 25.0705 12.8651 25.1842 12.8546C25.0887 13.2405 25.082 13.643 25.1648 14.0318C25.2475 14.4207 25.4175 14.7856 25.6618 15.0992C25.9062 15.4127 26.2186 15.6667 26.5754 15.8419C26.9323 16.017 27.3242 16.1089 27.7217 16.1105C27.8609 16.1105 27.9999 16.0997 28.1374 16.0781C28.4782 16.0251 28.8051 15.905 29.0992 15.7248C29.3933 15.5446 29.6487 15.3078 29.8506 15.0281C30.1508 14.6159 30.3626 14.1462 30.4727 13.6483C30.9882 13.9678 31.5987 14.0982 32.1997 14.0172C32.8008 13.9363 33.355 13.649 33.7676 13.2045C34.1801 12.76 34.4254 12.1859 34.4614 11.5805C34.4974 10.9751 34.3219 10.376 33.9649 9.88576C33.6683 9.47747 33.2917 9.13389 32.858 8.87601C33.3193 8.48169 33.6297 7.93971 33.7365 7.34229C33.8432 6.74487 33.7396 6.12893 33.4434 5.59927C33.1472 5.06961 32.6766 4.65895 32.1116 4.43718C31.5467 4.21541 30.9225 4.19622 30.345 4.38288C29.8652 4.53895 29.4222 4.79112 29.043 5.12401C28.8098 4.56465 28.3903 4.1032 27.8556 3.81798C27.3209 3.53276 26.7039 3.44133 26.1095 3.55921C25.5151 3.67708 24.9797 3.99701 24.5943 4.46469C24.2089 4.93237 23.9972 5.51899 23.9951 6.12501C23.9952 6.62861 24.0976 7.12695 24.2961 7.58976C23.7783 7.631 23.2843 7.82459 22.8763 8.14614C22.4684 8.46768 22.1647 8.90279 22.0036 9.39663ZM32.55 10.913C32.6176 11.006 32.6662 11.1113 32.693 11.2231C32.7199 11.3348 32.7244 11.4507 32.7065 11.5642C32.6885 11.6778 32.6484 11.7866 32.5883 11.8846C32.5283 11.9826 32.4496 12.0678 32.3566 12.1354C32.2637 12.2029 32.1583 12.2515 32.0466 12.2784C31.9348 12.3052 31.8189 12.3098 31.7054 12.2919C31.5919 12.2739 31.483 12.2338 31.385 12.1737C31.287 12.1137 31.2018 12.035 31.1342 11.942L29.9092 10.2559L30.646 10.1334C31.0045 10.0729 31.3728 10.1138 31.7092 10.2516C32.0457 10.3893 32.3369 10.6184 32.55 10.913ZM29.5575 7.61688C29.6102 7.25702 29.7627 6.91915 29.9978 6.64166C30.2329 6.36418 30.5412 6.1582 30.8875 6.04713C30.9744 6.01814 31.0654 6.00337 31.157 6.00338C31.3659 6.00256 31.5681 6.07648 31.7272 6.21179C31.8864 6.34709 31.9918 6.53485 32.0246 6.74113C32.0574 6.94742 32.0153 7.15861 31.9059 7.33656C31.7965 7.5145 31.6271 7.64745 31.4282 7.71138L29.4464 8.35538L29.5575 7.61688ZM28.5897 11.9481C28.7586 12.2702 28.8339 12.6332 28.807 12.9958C28.7801 13.3585 28.6521 13.7064 28.4375 14C28.3699 14.093 28.2847 14.1717 28.1867 14.2317C28.0887 14.2918 27.9799 14.3319 27.8664 14.3499C27.7528 14.3678 27.6369 14.3632 27.5252 14.3364C27.4134 14.3095 27.3081 14.2609 27.2151 14.1934C27.1222 14.1258 27.0434 14.0406 26.9834 13.9426C26.9234 13.8446 26.8832 13.7358 26.8653 13.6222C26.8473 13.5087 26.8519 13.3928 26.8787 13.2811C26.9056 13.1693 26.9542 13.064 27.0217 12.971L28.2467 11.2849L28.5897 11.9481ZM26.6201 5.25001C26.8522 5.25001 27.0747 5.34219 27.2388 5.50629C27.4029 5.67038 27.4951 5.89294 27.4951 6.12501V8.20926L26.8266 7.87501C26.5007 7.71364 26.2266 7.46411 26.0355 7.15476C25.8443 6.84542 25.7437 6.48866 25.7451 6.12501C25.7451 5.89294 25.8373 5.67038 26.0014 5.50629C26.1655 5.34219 26.3881 5.25001 26.6201 5.25001ZM23.6687 9.93738C23.7258 9.76179 23.8369 9.60874 23.9862 9.50014C24.1355 9.39154 24.3154 9.33295 24.5 9.33276C24.5924 9.33274 24.6842 9.3472 24.7721 9.37563L26.754 10.0196L26.229 10.5525C25.9747 10.8124 25.6527 10.9958 25.2994 11.082C24.9462 11.1681 24.5759 11.1536 24.2305 11.0399C24.0098 10.9682 23.8267 10.8117 23.7213 10.605C23.616 10.3982 23.5971 10.1581 23.6687 9.93738ZM20.5161 7.45238C20.4133 7.40094 20.3014 7.37025 20.1868 7.36206C20.0721 7.35388 19.957 7.36836 19.848 7.40468C19.7389 7.441 19.6381 7.49845 19.5513 7.57375C19.4644 7.64904 19.3933 7.74071 19.3419 7.84351C19.0112 8.50897 18.8391 9.24197 18.8391 9.98507C18.8391 10.7282 19.0112 11.4612 19.3419 12.1266C19.4149 12.2728 19.5273 12.3955 19.6665 12.481C19.8057 12.5665 19.966 12.6114 20.1294 12.6105C20.2649 12.6105 20.3986 12.5787 20.5196 12.5178C20.6225 12.4664 20.7142 12.3953 20.7896 12.3085C20.865 12.2217 20.9226 12.1209 20.959 12.0119C20.9954 11.9028 21.0099 11.7877 21.0018 11.673C20.9937 11.5583 20.963 11.4463 20.9116 11.3435C20.7014 10.9215 20.592 10.4565 20.592 9.98507C20.592 9.51363 20.7014 9.04862 20.9116 8.62663C20.9629 8.52359 20.9934 8.41144 21.0012 8.29661C21.0091 8.18178 20.9943 8.06652 20.9575 7.95744C20.9208 7.84836 20.8629 7.7476 20.7871 7.66094C20.7114 7.57427 20.6193 7.5034 20.5161 7.45238ZM35.9284 12.8284C35.8364 12.9025 35.7603 12.9944 35.7048 13.0987C35.6493 13.203 35.6155 13.3174 35.6054 13.4351C35.5953 13.5528 35.6092 13.6713 35.6461 13.7835C35.6831 13.8957 35.7423 13.9992 35.8204 14.0879C35.8984 14.1765 35.9936 14.2485 36.1002 14.2994C36.2067 14.3503 36.3225 14.3791 36.4405 14.3841C36.5586 14.389 36.6764 14.37 36.7868 14.3282C36.8973 14.2864 36.9982 14.2227 37.0834 14.1409L37.2382 14.0044C37.7569 13.5516 38.1384 12.9626 38.3395 12.3041C38.5405 11.6456 38.5531 10.9439 38.3757 10.2786C38.349 10.1649 38.2998 10.0578 38.231 9.9634C38.1622 9.86904 38.0752 9.7894 37.9752 9.72918C37.8751 9.66896 37.764 9.62938 37.6484 9.61278C37.5328 9.59617 37.415 9.60287 37.3021 9.63249C37.1891 9.6621 37.0832 9.71403 36.9906 9.78521C36.8981 9.85639 36.8207 9.94538 36.763 10.0469C36.7054 10.1485 36.6686 10.2606 36.655 10.3766C36.6413 10.4925 36.651 10.6101 36.6835 10.7223C36.7768 11.0738 36.7698 11.4445 36.6632 11.7923C36.5567 12.1401 36.3548 12.4511 36.0806 12.6901L35.9284 12.8284Z" fill="#264065"/>
</svg>
