<svg width="22" height="27" viewBox="0 0 22 27" fill="none" xmlns="http://www.w3.org/2000/svg">
<path d="M20 6.66667H16V5.33333C16 3.91885 15.4381 2.56229 14.4379 1.5621C13.4377 0.561903 12.0812 0 10.6667 0C9.25218 0 7.89562 0.561903 6.89543 1.5621C5.89524 2.56229 5.33333 3.91885 5.33333 5.33333V6.66667H1.33333C0.979711 6.66667 0.640573 6.80714 0.390525 7.05719C0.140476 7.30724 0 7.64638 0 8L0 22.6667C0 23.7275 0.421427 24.7449 1.17157 25.4951C1.92172 26.2452 2.93913 26.6667 4 26.6667H17.3333C18.3942 26.6667 19.4116 26.2452 20.1618 25.4951C20.9119 24.7449 21.3333 23.7275 21.3333 22.6667V8C21.3333 7.64638 21.1929 7.30724 20.9428 7.05719C20.6928 6.80714 20.3536 6.66667 20 6.66667ZM8 5.33333C8 4.62609 8.28095 3.94781 8.78105 3.44771C9.28115 2.94762 9.95942 2.66667 10.6667 2.66667C11.3739 2.66667 12.0522 2.94762 12.5523 3.44771C13.0524 3.94781 13.3333 4.62609 13.3333 5.33333V6.66667L8 6.66667V5.33333ZM18.6667 22.6667C18.6667 23.0203 18.5262 23.3594 18.2761 23.6095C18.0261 23.8595 17.687 24 17.3333 24H4C3.64638 24 3.30724 23.8595 3.05719 23.6095C2.80714 23.3594 2.66667 23.0203 2.66667 22.6667L2.66667 9.33333H5.33333V10.6667C5.33333 11.0203 5.47381 11.3594 5.72386 11.6095C5.97391 11.8595 6.31305 12 6.66667 12C7.02029 12 7.35943 11.8595 7.60948 11.6095C7.85952 11.3594 8 11.0203 8 10.6667V9.33333H13.3333V10.6667C13.3333 11.0203 13.4738 11.3594 13.7239 11.6095C13.9739 11.8595 14.313 12 14.6667 12C15.0203 12 15.3594 11.8595 15.6095 11.6095C15.8595 11.3594 16 11.0203 16 10.6667V9.33333L18.6667 9.33333V22.6667Z" fill="#264065"/>
</svg>
